<svg width="64" height="61" viewBox="0 0 64 61" fill="none" xmlns="http://www.w3.org/2000/svg">
<path d="M6.94577 19.5398L19.8379 53.1688C10.8198 49.0076 4.60867 40.2011 4.60867 30.0156C4.60867 26.2777 5.44698 22.7455 6.94577 19.5398V19.5398ZM49.8645 28.7213C49.8645 25.5398 48.6706 23.3382 47.6417 21.6205C46.27 19.5035 44.9871 17.7011 44.9871 15.5842C44.9871 13.2132 46.8669 11.0116 49.5216 11.0116C49.6359 11.0116 49.7502 11.0237 49.8772 11.0358C45.0633 6.83821 38.6617 4.27369 31.625 4.27369C22.1877 4.27369 13.8808 8.88256 9.04153 15.8745C9.67661 15.8987 10.2736 15.9108 10.7817 15.9108C13.6014 15.9108 17.9835 15.5842 17.9835 15.5842C19.4442 15.4995 19.6093 17.5438 18.1613 17.7011C18.1613 17.7011 16.7006 17.8584 15.0748 17.943L24.9185 45.814L30.8375 28.9269L26.6333 17.943C25.1726 17.8584 23.8008 17.7011 23.8008 17.7011C22.3401 17.6164 22.5179 15.4995 23.9659 15.5842C23.9659 15.5842 28.4242 15.9108 31.0788 15.9108C33.8986 15.9108 38.2806 15.5842 38.2806 15.5842C39.7413 15.4995 39.9064 17.5438 38.4585 17.7011C38.4585 17.7011 36.9978 17.8584 35.372 17.943L45.1395 45.6084L47.8323 37.0318C48.9754 33.4753 49.8645 30.9229 49.8645 28.7213ZM32.095 32.2656L23.9913 54.7051C26.4173 55.3826 28.9704 55.7576 31.625 55.7576C34.775 55.7576 37.7853 55.2374 40.5923 54.2939C40.5161 54.185 40.4526 54.064 40.4018 53.943L32.095 32.2656ZM55.3389 17.6648C55.4532 18.4874 55.5167 19.3584 55.5167 20.314C55.5167 22.9269 55.0087 25.8543 53.4591 29.5318L45.203 52.2616C53.2431 47.7979 58.6413 39.5116 58.6413 30.0156C58.6413 25.5398 57.4474 21.3301 55.3389 17.6648V17.6648ZM63.125 30.0156C63.125 46.564 48.9881 60.0156 31.625 60.0156C14.2492 60.0156 0.125 46.5519 0.125 30.0156C0.125 13.4672 14.2492 0.015625 31.625 0.015625C48.9881 0.015625 63.125 13.4672 63.125 30.0156ZM61.677 30.0156C61.677 14.2293 48.1879 1.39466 31.625 1.39466C15.0494 1.39466 1.57298 14.2293 1.57298 30.0156C1.57298 45.8019 15.0621 58.6366 31.625 58.6366C48.2006 58.6366 61.677 45.8019 61.677 30.0156Z" fill="#020C67"/>
</svg>
